PathFileType	4	(X/Y/Z)	Patient4_TMGait_0pt3_03_left_05.trc.trc
DataRate	CameraRate	NumFrames	NumMarkers	Units	OrigDataRate	OrigDataStartFrame	OrigNumFrames
53.231939163498	53.231939163498	4	33	mm	53.231939163498	124	       141
Frame#	Time	Sacral			L.Shoulder			Chest			R.Shoulder			Neck			R.ASIS			L.ASIS			R.Thigh.Superior			R.Thigh.Lateral			R.Thigh.Inferior			R.Patella			L.Thigh.Superior			L.Thigh.Lateral			L.Thigh.Inferior			L.Patella			L.Shank.Superior			L.Shank.Lateral			L.Shank.Inferior			R.Shank.Superior			R.Shank.Lateral			R.Shank.Inferior			R.Heel			R.Midfoot.Superior			R.Midfoot.Lateral			R.Toe			L.Heel			L.Midfoot.Lateral			L.Midfoot.Superior			L.Toe			L.Elbow			L.Wrist			R.Elbow			R.Wrist			
		X1	Y1	Z1	X2	Y2	Z2	X3	Y3	Z3	X4	Y4	Z4	X5	Y5	Z5	X6	Y6	Z6	X7	Y7	Z7	X8	Y8	Z8	X9	Y9	Z9	X10	Y10	Z10	X11	Y11	Z11	X12	Y12	Z12	X13	Y13	Z13	X14	Y14	Z14	X15	Y15	Z15	X16	Y16	Z16	X17	Y17	Z17	X18	Y18	Z18	X19	Y19	Z19	X20	Y20	Z20	X21	Y21	Z21	X22	Y22	Z22	X23	Y23	Z23	X24	Y24	Z24	X25	Y25	Z25	X26	Y26	Z26	X27	Y27	Z27	X28	Y28	Z28	X29	Y29	Z29	X30	Y30	Z30	X31	Y31	Z31	X32	Y32	Z32	X33	Y33	Z33	

124	10.710642857143	738.416011032223	1003.689746639087	579.313069990265	894.133571009966	1415.736417678451	355.351516759830	1026.697506636932	1346.032043647736	492.915682240190	988.705775952202	1432.804261236689	675.493544249737	910.066140896188	1481.524080301921	511.213660760103	977.905615203098	922.595247639559	655.663740785705	923.085241907704	954.017899138106	388.089738491643	984.963414279450	713.947445806640	613.457035578223	897.799376753816	609.219885795260	677.964826077610	954.969704627892	553.210923520056	586.087221024165	942.195016868295	459.659176183314	589.401346501982	997.308121763693	761.409092578300	411.488863328100	934.860979695486	637.892787523485	335.544604147007	1035.624455135482	574.242399140889	394.596123299598	1055.961505366259	508.965355994042	391.368673958759	1038.319069524158	438.058944871771	376.098940210571	969.455849336518	313.445271061248	316.575442501148	1051.132608533281	208.397767101034	368.916696808355	888.472373934431	379.241174166299	597.057522447150	799.964895755182	293.897972591524	666.239873597664	805.289136576687	196.181983344332	596.170230639113	632.608157871798	52.922720901190	575.889762244970	808.304360257196	97.096782438336	603.121740471969	718.975647107520	40.868633710278	645.499460373931	926.121566251959	38.341815763053	625.620490182350	955.258425195022	37.258747774285	394.706807699302	1033.321007512479	39.520047304797	318.326597737450	1109.536042457798	108.629279905106	347.189824117177	1241.040990352962	69.027915573599	325.358503258449	719.034843169844	1104.835735018372	292.699304743618	659.284941812785	853.187641111911	333.946560019107	1150.063092738853	1140.376620312811	794.381997569899	1377.912882949724	1217.609082087591	717.165202114221	
125	10.729428571429	739.032475271272	1002.918368499912	576.041898161690	894.780365186657	1414.788201141195	351.596599610953	1027.727397997828	1344.747933816585	488.663661000124	990.410922995729	1431.534638541421	671.311035576164	911.330235721297	1480.478532263817	507.302032988158	978.582801746311	921.450583484008	652.072948799375	923.238688195962	952.619581767529	384.565843921603	984.299639626918	712.598439401537	610.663495829044	896.448155557396	608.558133347499	675.699198764212	953.090952532173	551.882369493806	584.077848328783	939.539583473561	458.298793134863	587.764001862512	997.405693081247	760.085735717480	407.922566182120	933.924213038849	636.129516642304	333.490298279095	1035.316048355181	572.996829940276	391.905607987135	1054.583456311618	507.170729512261	389.406388861213	1037.093297531844	436.111956360006	374.458383632916	967.438392299273	311.661838327685	315.890150500994	1048.444568320946	206.489618544893	368.649629617278	885.191982279166	378.308380119145	595.757750986136	795.967956471444	293.970201018271	665.358779572525	800.579450716444	195.924285664111	595.688030416968	627.068647596981	53.390588783205	575.919004652768	802.879698366094	97.178706110103	603.077563023508	713.416323015464	41.123514123212	645.522497811399	920.556615329530	38.245678097906	625.670975496771	950.871429082761	37.161332730530	395.393848944959	1028.686941726649	38.404031889695	318.683273900832	1105.980792081301	106.146125485357	347.551218675068	1236.885248303561	64.552305797065	325.304819941440	718.276518627717	1105.016796153781	289.870146910038	658.530023315709	853.253142700693	332.662376603004	1157.442106459576	1142.982180677158	788.957847101471	1381.796269675746	1227.605187030992	709.720634904571	
126	10.748214285714	739.784929064211	1002.236754846572	572.579848778179	895.517005534421	1413.975599416013	347.714524972100	1028.844935446531	1343.616357351219	484.292848032195	992.155962237005	1430.332519416912	667.044709406621	912.645628476174	1479.558346506640	503.280663624747	979.432366531795	920.403924736887	648.250802204585	923.551527712636	951.432049903238	380.824289066003	983.903886471519	711.348702477220	607.670682023142	895.366850763374	607.987725979148	673.222230846254	951.506487715568	550.642676595668	581.870952070439	937.173383086295	457.001275435443	585.931634129625	997.993406180131	759.259027360167	404.600354572106	934.103828782009	634.840416110040	331.362671878094	1035.934595825825	572.207805215205	389.407363977532	1054.192310691595	505.669030174883	387.511398283009	1036.617461317655	434.356483249140	372.903014424484	965.878081319687	310.339665561131	314.987080320135	1045.552479286893	204.704888653816	368.386066486017	882.153786748157	377.478014770341	594.328264625931	792.183166002614	294.227860809768	664.374648250953	796.024924475108	195.817934467097	595.177875745554	621.603179361738	54.144436153773	575.987019712795	797.571510334899	97.323292639414	603.052319879745	707.925528183678	41.532949335392	645.564524610598	915.041815489832	38.117843091110	625.729226431578	945.653559520809	37.272743334393	395.932972882294	1023.265850146150	37.471808411055	318.934227277789	1101.682981603044	103.813235964549	347.873304063601	1231.984626764354	60.155267313622	325.256875562858	718.687024209626	1104.638173547988	286.521776275693	659.807929636111	852.514832707713	330.358554481113	1163.912086970761	1145.064383219562	783.429535068326	1385.281956651609	1235.587923212677	702.618023324257	
127	10.767000000000	740.696654944697	1001.740598426328	568.926217244575	896.336301053588	1413.392781293368	343.718802725018	1030.046787464331	1342.734472230369	479.813210708372	993.941856468951	1429.306187704665	662.699844852313	913.995019417837	1478.850036765144	499.168064909499	980.456186089171	919.544997435158	644.213719799836	924.057200228978	950.549909437573	376.871626528994	983.705291832754	710.270063624177	604.513256105846	894.463529165976	607.607675912428	670.588644249733	950.119986797965	549.568999822849	579.534655563906	934.988826164885	455.864568502326	583.985226435141	999.048421666880	758.949120075108	401.541308054199	935.317388090072	634.055139001459	329.139669000361	1037.344109486661	571.845159322961	387.113211226794	1054.682150698621	504.491122749640	385.715418007808	1036.817985535431	432.851329813341	371.454981268681	964.834282342772	309.483064442642	313.850277596411	1042.584156103563	203.120580967097	368.128314687420	879.284753450863	376.841683294801	592.836840532423	788.552470497465	294.735714588110	663.337640979408	791.605738603461	195.930588872149	594.682678704148	616.218894814452	55.245349248432	576.107224722974	792.390385921548	97.539291932441	603.060526241811	702.505861602843	42.125048737871	645.634467035760	909.571049562735	37.957348862271	625.793715335726	939.937525857398	37.519225826974	396.281594515779	1017.406658126659	36.759000274940	319.063402292052	1096.882065302024	101.785323061829	348.144085760545	1226.636475704084	56.175703803178	325.227215087365	720.180844805893	1103.834511454473	282.658564784780	662.986785033730	851.131152353335	327.000810232927	1169.483719944409	1146.678608347083	777.830034511330	1388.486215992406	1241.673234399263	695.842701807386	
